<?xml version="1.0" encoding="utf-8"?>
<!-- Generator: Adobe Illustrator 19.0.0, SVG Export Plug-In . SVG Version: 6.00 Build 0)  -->
<svg version="1.1" id="Layer_1" xmlns="http://www.w3.org/2000/svg" xmlns:xlink="http://www.w3.org/1999/xlink" x="0px" y="0px"
	 viewBox="0 0 275.4 74.9" style="enable-background:new 0 0 275.4 74.9;" xml:space="preserve">
<style type="text/css">
	.st0{fill:#3B97D3;}
	.st1{fill:#35495E;}
	.st2{fill:#955BA5;}
	.st3{font-family:'Lato-Regular';}
	.st4{font-size:72px;}
</style>
<g id="XwK5uk.tif">
	<g id="XMLID_1_">
		<path id="XMLID_8_" class="st0" d="M30.7,21.7c-1.2,2.8-2,4.2-3.7,6.7c-2.7,4.2-6,8.1-9.1,12.2c-2.1,2.7-3.8,2.7-5.9-0.1
			c-3.2-4.3-6.6-8.4-9.6-12.9C-3,19.4,1,8.4,10.5,5.4C18.7,2.7,31,8.2,31.1,18.9 M20.2,20.9c0-3-2.3-5.2-5.3-5.1
			c-3,0.1-5.2,2.4-5.2,5.3c0,2.8,2.5,5.2,5.3,5.2C17.9,26.3,20.3,23.8,20.2,20.9z"/>
		<path id="XMLID_7_" class="st1" d="M29.7,61.8c-5.6,5-11.4,5.6-16.4,1.8c-0.8-0.6-1.7-1.2-2-2c-0.4-1.2-0.7-2.9-0.1-3.7
			c1.1-1.5,2.6-0.8,3.9,0.4c3.5,3.5,7.3,3.6,10.2,0.4c2.2-2.4,2.1-4.1,0.1-6.6c-1.5-1.8-2.9-3.6-4.1-5.5c-1.5-2.2-0.4-4.3,2.3-4.3
			c4.1-0.1,8.2-0.1,12.3,0c2.6,0.1,3.7,2.1,2.2,4.4c-1.3,2-2.6,4.1-4.4,5.7c-2,1.7-1.5,3.2-0.6,5c2.3,4.2,7.6,4.9,10.9,1.4
			c1.4-1.5,2.7-2.5,4.3-1c1.7,1.6,0.6,3.1-0.7,4.4C43,67.4,36.2,67.2,29.7,61.8z"/>
		<path id="XMLID_6_" class="st1" d="M46.3,26.4c-3.1,0-5.4-2.3-5.4-5.4c0-3,2.5-5.4,5.5-5.4c3,0,5.4,2.4,5.4,5.5
			C51.8,24.1,49.4,26.4,46.3,26.4z"/>
		<text id="XMLID_2_" transform="matrix(1 0 0 1 67.3333 61.7939)" class="st2 st3 st4">barker</text>
	</g>
</g>
</svg>
