<?xml version="1.0" encoding="utf-8"?>
<!-- Generator: Adobe Illustrator 19.0.0, SVG Export Plug-In . SVG Version: 6.00 Build 0)  -->
<svg version="1.1" id="Layer_1" xmlns="http://www.w3.org/2000/svg" xmlns:xlink="http://www.w3.org/1999/xlink" x="0px" y="0px"
	 viewBox="0 0 55.8 68.3" style="enable-background:new 0 0 55.8 68.3;" xml:space="preserve">
<style type="text/css">
	.st0{fill:#3B97D3;}
	.st1{fill:#35495E;}
</style>
<path id="XMLID_8_" class="st0" d="M30.7,17c-1.2,2.8-2,4.2-3.7,6.7c-2.7,4.2-6,8.1-9.1,12.2c-2.1,2.7-3.8,2.7-5.9-0.1
	C8.9,31.6,5.5,27.4,2.5,23C-3,14.7,1,3.7,10.5,0.7C18.7-2,31,3.5,31.1,14.2 M20.2,16.2c0-3-2.3-5.2-5.3-5.1c-3,0.1-5.2,2.4-5.2,5.3
	c0,2.8,2.5,5.2,5.3,5.2C17.9,21.6,20.3,19.1,20.2,16.2z"/>
<path id="XMLID_7_" class="st1" d="M32.7,64.1c-5.6,5-11.4,5.6-16.4,1.8c-0.8-0.6-1.7-1.2-2-2c-0.4-1.2-0.7-2.9-0.1-3.7
	c1.1-1.5,2.6-0.8,3.9,0.4c3.5,3.5,7.3,3.6,10.2,0.4c2.2-2.4,2.1-4.1,0.1-6.6c-1.5-1.8-2.9-3.6-4.1-5.5c-1.5-2.2-0.4-4.3,2.3-4.3
	c4.1-0.1,8.2-0.1,12.3,0c2.6,0.1,3.7,2.1,2.2,4.4c-1.3,2-2.6,4.1-4.4,5.7c-2,1.7-1.5,3.2-0.6,5c2.3,4.2,7.6,4.9,10.9,1.4
	c1.4-1.5,2.7-2.5,4.3-1c1.7,1.6,0.6,3.1-0.7,4.4C46,69.7,39.2,69.5,32.7,64.1z"/>
<path id="XMLID_6_" class="st1" d="M50.3,21.7c-3.1,0-5.4-2.3-5.4-5.4c0-3,2.5-5.4,5.5-5.4c3,0,5.4,2.4,5.4,5.5
	C55.8,19.4,53.4,21.7,50.3,21.7z"/>
</svg>
