<?xml version="1.0" encoding="UTF-8" standalone="no"?>
<svg width="609px" height="63px" viewBox="0 0 609 63" version="1.1" xmlns="http://www.w3.org/2000/svg" xmlns:xlink="http://www.w3.org/1999/xlink" xmlns:sketch="http://www.bohemiancoding.com/sketch/ns">
    <!-- Generator: Sketch 3.3.2 (12043) - http://www.bohemiancoding.com/sketch -->
    <title>Slice 1</title>
    <desc>Created with Sketch.</desc>
    <defs></defs>
    <g id="Page-1" stroke="none" stroke-width="1" fill="none" fill-rule="evenodd" sketch:type="MSPage">
        <path d="M390.532,61.285 L408.778,1.464" id="Fill-1" fill="#1A1918" sketch:type="MSShapeGroup"></path>
        <path d="M390.532,61.285 L408.778,1.464" id="Stroke-2" stroke="#42241E" stroke-width="0.9" stroke-linejoin="round" sketch:type="MSShapeGroup"></path>
        <path d="M466.779,61.285 L485.024,1.464" id="Fill-4" fill="#1A1918" sketch:type="MSShapeGroup"></path>
        <path d="M466.779,61.285 L485.024,1.464" id="Stroke-5" stroke="#42241E" stroke-width="0.9" stroke-linejoin="round" sketch:type="MSShapeGroup"></path>
        <path d="M544.855,61.285 L563.1,1.464" id="Fill-7" fill="#1A1918" sketch:type="MSShapeGroup"></path>
        <path d="M544.855,61.285 L563.1,1.464" id="Stroke-8" stroke="#42241E" stroke-width="0.9" stroke-linejoin="round" sketch:type="MSShapeGroup"></path>
        <path d="M364.637,51.12 L357.332,51.12 L357.332,17.201 L345.484,17.201 L345.484,10.419 L376.482,10.419 L376.482,17.201 L364.637,17.201 L364.637,51.12" id="Fill-10" fill="#1A1918" sketch:type="MSShapeGroup"></path>
        <path d="M439.348,28.318 C441.907,28.318 445.247,27.846 445.247,22.785 C445.247,17.672 441.907,17.201 439.348,17.201 L429.383,17.201 L429.383,28.318 L439.348,28.318 L439.348,28.318 Z M429.383,51.12 L422.078,51.12 L422.078,10.419 L438.879,10.419 C445.924,10.419 452.706,12.766 452.706,22.785 C452.706,29.988 449.213,33.169 444.669,34.37 L454.534,51.12 L445.979,51.12 L436.844,35.152 L429.383,35.152 L429.383,51.12 L429.383,51.12 Z" id="Fill-11" fill="#1A1918" sketch:type="MSShapeGroup"></path>
        <path d="M529.354,10.419 L529.354,17.201 L507.801,17.201 L507.801,26.909 L526.901,26.909 L526.901,33.693 L507.801,33.693 L507.801,44.338 L530.347,44.338 L530.347,51.12 L500.5,51.12 L500.5,10.419 L529.354,10.419" id="Fill-12" fill="#1A1918" sketch:type="MSShapeGroup"></path>
        <path d="M607.204,10.419 L607.204,17.201 L585.651,17.201 L585.651,26.909 L604.746,26.909 L604.746,33.693 L585.651,33.693 L585.651,44.338 L608.19,44.338 L608.19,51.12 L578.345,51.12 L578.345,10.419 L607.204,10.419" id="Fill-13" fill="#1A1918" sketch:type="MSShapeGroup"></path>
        <path d="M299.261,51.12 L292.531,51.12 L278.495,30.143 L274.475,23.88 L274.579,33.641 L274.579,51.12 L267.274,51.12 L267.274,10.419 L274.004,10.419 L288.042,31.395 L292.06,37.659 L291.956,27.897 L291.956,10.419 L299.261,10.419 L299.261,51.12 L299.261,51.12 Z M254.917,0.408 L235.896,62.417 L312.535,62.417 L331.813,0.408 L254.917,0.408 L254.917,0.408 Z M130.263,17.201 L121.549,17.201 L121.549,28.997 L130.263,28.997 C132.769,28.997 136.107,28.266 136.107,23.098 C136.107,17.934 132.769,17.201 130.263,17.201 L130.263,17.201 Z M49.652,51.85 C38.642,51.85 34.05,47.467 33.215,39.381 L40.625,38.594 C41.198,43.346 44.121,45.067 49.652,45.067 C53.721,45.016 58.314,43.501 58.314,39.015 C58.314,35.466 56.174,33.954 49.444,33.328 C41.982,32.701 34.675,30.768 34.624,22.055 C34.571,13.496 41.408,9.689 49.287,9.689 C59.933,9.689 64.785,14.385 65.515,22.107 L58.106,22.888 C57.531,18.09 54.818,16.47 49.287,16.47 C46.521,16.523 41.929,17.513 41.929,22.107 C41.982,24.927 43.547,26.125 49.809,26.751 C59.776,27.64 65.515,29.464 65.567,39.015 C65.621,48.094 57.739,51.85 49.652,51.85 L49.652,51.85 Z M19.337,0.408 L0.37,62.417 L74.216,62.417 L93.139,0.408 L19.337,0.408 L19.337,0.408 Z M129.742,35.831 L121.549,35.831 L121.549,51.12 L114.244,51.12 L114.244,10.419 L129.688,10.419 C136.473,10.419 143.622,12.925 143.622,23.098 C143.622,33.328 136.578,35.831 129.742,35.831 L129.742,35.831 Z M95.391,0.408 L76.369,62.417 L153.418,62.417 L172.34,0.408 L95.391,0.408 L95.391,0.408 Z M198.715,34.786 L209.257,34.786 L203.986,19.132 L198.715,34.786 L198.715,34.786 Z M215.048,51.12 L211.551,41.414 L196.42,41.414 L192.923,51.12 L185.042,51.12 L200.75,9.689 L207.219,9.689 L222.927,51.12 L215.048,51.12 L215.048,51.12 Z M174.593,0.408 L155.571,62.417 L233.743,62.417 L252.665,0.408 L174.593,0.408 L174.593,0.408 Z" id="Fill-29" fill="#1A1918" sketch:type="MSShapeGroup"></path>
        <path id="Fill-30" fill="#1A1918" sketch:type="MSShapeGroup"></path>
    </g>
</svg>